<svg id="Capa_1" enable-background="new 0 0 512 512" height="512" viewBox="0 0 512 512" width="512" xmlns="http://www.w3.org/2000/svg"><g><g><path d="m509.804 499.196-46.125-46.125 1.681-1.681h18.94c15.274 0 27.7-12.426 27.7-27.699v-86.521c0-4.143-3.357-7.5-7.5-7.5s-7.5 3.357-7.5 7.5v86.521c0 7.002-5.697 12.699-12.7 12.699h-20.159l-18.754-18.754c24.255-45.831 18.927-103.34-15.991-144.036h54.904c4.576 0 8.893-1.122 12.7-3.095v31.666c0 4.143 3.357 7.5 7.5 7.5s7.5-3.357 7.5-7.5v-177.491c0-15.273-12.426-27.699-27.7-27.699h-107.661v-26.851c0-4.143-3.357-7.5-7.5-7.5h-4.622v-28.865c0-18.618-15.147-33.765-33.765-33.765h-149.504c-18.618 0-33.765 15.146-33.765 33.765v28.865h-4.622c-4.143 0-7.5 3.357-7.5 7.5v26.851h-107.661c-15.274 0-27.7 12.425-27.7 27.699v29.181c0 4.143 3.357 7.5 7.5 7.5s7.5-3.357 7.5-7.5v-29.181c0-7.002 5.697-12.699 12.7-12.699h456.6c7.003 0 12.7 5.697 12.7 12.699v121.221c0 7.002-5.697 12.699-12.7 12.699h-70.102c-47.614-39.86-117.493-39.86-165.106 0h-221.392c-7.003 0-12.7-5.697-12.7-12.699v-57.04c0-4.143-3.357-7.5-7.5-7.5s-7.5 3.357-7.5 7.5v234.83c0 15.273 12.426 27.699 27.7 27.699h216.057c24.671 23.077 56.277 34.624 87.888 34.624 20.747 0 41.491-4.975 60.276-14.915l21.562 21.562c1.464 1.464 3.384 2.196 5.303 2.196s3.839-.732 5.304-2.196l3.268-3.268 20.411 20.411c1.465 1.464 3.385 2.196 5.304 2.196s3.839-.732 5.304-2.196c2.929-2.93 2.929-7.678 0-10.607l-20.411-20.411 15.107-15.107 46.125 46.125c1.465 1.464 3.385 2.196 5.304 2.196s3.839-.732 5.304-2.196c2.926-2.93 2.926-7.678-.002-10.608zm-306.332-436.566h-4.622v-15.305h114.3v15.305h-4.622c-4.143 0-7.5 3.357-7.5 7.5v26.851h-90.057v-26.851c.001-4.143-3.357-7.5-7.499-7.5zm112.556 15h45.61v19.351h-45.61zm-153.545-43.865c0-10.347 8.418-18.765 18.765-18.765h149.504c10.347 0 18.765 8.418 18.765 18.765v28.865h-21.367v-22.805c0-4.143-3.357-7.5-7.5-7.5h-129.3c-4.143 0-7.5 3.357-7.5 7.5v22.805h-21.366v-28.865zm-12.122 43.865h45.61v19.351h-45.61zm100.872 360.138c-21.3-21.301-33.127-49.605-33.304-79.701-.024-4.127-3.378-7.456-7.499-7.456-.015 0-.03 0-.045 0-4.143.024-7.48 3.402-7.456 7.544.169 28.693 9.693 55.946 27.095 78.235h-202.324c-7.003 0-12.7-5.697-12.7-12.699v-153.187c3.807 1.973 8.124 3.095 12.7 3.095h206.223c-11.927 13.917-20.814 30.266-25.897 47.813-1.152 3.979 1.139 8.139 5.117 9.291 3.976 1.151 8.139-1.139 9.291-5.118 5.293-18.274 15.251-35.095 28.799-48.643 44.338-44.34 116.483-44.34 160.823 0 44.339 44.34 44.339 116.484 0 160.823-44.337 44.341-116.485 44.342-160.823.003zm153.871 25.302c6.176-4.296 12.057-9.194 17.56-14.696 5.5-5.501 10.398-11.38 14.693-17.554l13.679 13.679-28.973 28.973c-.003.003-.007.006-.01.009s-.006.007-.009.01l-3.258 3.258z"/><path d="m399.803 289.194c-18.207-18.206-42.414-28.233-68.161-28.233-25.748 0-49.955 10.027-68.162 28.233-37.583 37.584-37.583 98.738 0 136.323 18.793 18.791 43.477 28.187 68.161 28.187s49.369-9.396 68.162-28.187c37.583-37.584 37.583-98.739 0-136.323zm-10.608 125.716c-15.869 15.87-36.708 23.804-57.555 23.802-20.841-.002-41.688-7.936-57.554-23.802-31.735-31.735-31.735-83.373 0-115.108 15.868-15.868 36.712-23.802 57.555-23.802 20.844 0 41.688 7.934 57.555 23.802 31.735 31.735 31.735 83.373-.001 115.108z"/></g></g></svg>